# xmcd
# 
# Track frame offsets:
#     150
#     18159
#     32064
#     41208
#     54870
#     80298
#     92510
#     116104
#     133363
#     150031
# 
# Disc length: 2243
# 
# Revision: 0
# Processed by: cddbd v1.5.2PL0 Copyright (c) Steve Scherf et al.
# Submitted via: fre:ac v1.0.17
# 
DISCID=7008c10a
DTITLE=Wilbur De Paris and Jimmy Witherspoon - New Orleans Blues
DYEAR=1957
DGENRE=Blues
TTITLE0=Lotus Blossom
TTITLE1=Trouble In Mind
TTITLE2=Big Fine Girl
TTITLE3=How Long Blues
TTITLE4=Good Rollin' Blues
TTITLE5=Careless Love
TTITLE6=Tain't Nobody's Business If I Do
TTITLE7=St. Louis Blues
TTITLE8=When The Sun Goes Down
TTITLE9=See See Rider
EXTD=
EXTT0=
EXTT1=
EXTT2=
EXTT3=
EXTT4=
EXTT5=
EXTT6=
EXTT7=
EXTT8=
EXTT9=
PLAYORDER=
